General
Complete name                            : In Darkness [2011] 720p BRRip H264 AC3 - CODY.mp4
Format                                   : MPEG-4
Format profile                           : Base Media
Codec ID                                 : isom
File size                                : 2.55 GiB
Duration                                 : 2h 17mn
Overall bit rate mode                    : Variable
Overall bit rate                         : 2 650 Kbps
Encoded date                             : UTC 2012-05-11 09:16:02

Video
ID                                       : 1
Format                                   : AVC
Format/Info                              : Advanced Video Codec
Format profile                           : High@L4.1
Format settings, CABAC                   : Yes
Format settings, ReFrames                : 5 frames
Codec ID                                 : avc1
Codec ID/Info                            : Advanced Video Coding
Duration                                 : 2h 17mn
Bit rate mode                            : Variable
Bit rate                                 : 2 200 Kbps
Maximum bit rate                         : 20.0 Mbps
Width                                    : 1 280 pixels
Height                                   : 688 pixels
Display aspect ratio                     : 1.860
Frame rate mode                          : Constant
Frame rate                               : 25.000 fps
Color space                              : YUV
Chroma subsampling                       : 4:2:0
Bit depth                                : 8 bits
Scan type                                : Progressive
Bits/(Pixel*Frame)                       : 0.100
Stream size                              : 2.12 GiB (83%)
Writing library                          : x264 core 119 r2106 07efeb4
Encoding settings                        : rc=2pas

Audio
ID                                       : 2
Format                                   : AC-3
Format/Info                              : Audio Coding 3
Mode extension                           : CM (complete main)
Codec ID                                 : ac-3
Duration                                 : 2h 17mn
Bit rate mode                            : Constant
Bit rate                                 : 448 Kbps
Channel(s)                               : 6 channels
Channel positions                        : Front: L C R, Side: L R, LFE
Sampling rate                            : 48.0 KHz
Bit depth                                : 16 bits
Compression mode                         : Lossy
Stream size                              : 442 MiB (17%)




IMDB link:                                 http://www.imdb.com/title/tt1417075/




Subtitles included                       : English, Polish, Polish for non-Polish




Please seed at least 1,5:1 . This way this torrent has a chance to survive !!!




Thanks . Enjoy !!
